<svg width="828" height="210" viewBox="0 0 828 210" fill="none" xmlns="http://www.w3.org/2000/svg">
<path fill-rule="evenodd" clip-rule="evenodd" d="M146.304 204.768C151.488 203.424 155.424 201.408 158.112 198.72V50.688C158.112 41.28 155.904 35.136 151.488 32.256C147.072 29.184 140.64 27.648 132.192 27.648C127.968 27.648 123.648 27.936 119.232 28.512C115.008 29.088 111.84 29.664 109.728 30.24V76.896C109.728 87.264 109.824 97.632 110.016 108C110.208 118.368 110.688 128.736 111.456 139.104L110.016 139.392C107.328 132.48 104.832 126.432 102.528 121.248C100.224 115.872 97.632 110.208 94.752 104.256L65.952 46.08C62.112 38.208 56.928 33.216 50.4 31.104C44.064 28.8 37.344 27.648 30.24 27.648C23.904 27.648 17.952 28.608 12.384 30.528C6.816 32.448 2.688 35.328 0 39.168V41.4225C4.74239 40.3087 9.83491 41.4717 13.4902 44.9837L6.79161 51.9051L6.7917 51.9052C13.4905 44.984 13.4915 44.985 13.4926 44.986L13.4951 44.9885L13.5006 44.9937L13.5128 45.0055L13.5426 45.0342L13.6223 45.1118C13.684 45.172 13.7632 45.25 13.8562 45.3427C14.0394 45.5251 14.2905 45.7793 14.5745 46.0784C15.0096 46.5366 16.0184 47.6143 16.9194 48.8902L16.9282 48.9027C17.2508 49.3596 18.3906 50.9732 19.1242 53.2404C19.3858 54.0486 19.9001 55.8281 19.8541 58.1906L19.9406 58.231C20.6515 58.564 21.7864 59.1083 22.844 59.7533L22.8599 59.7629C23.2401 59.9946 24.5765 60.8092 25.8933 62.1392C26.4465 62.6981 28.2114 64.5223 29.2599 67.5294C30.6247 71.4435 30.6533 77.5604 26.1168 82.7027C24.6963 84.3129 23.1851 85.3868 21.95 86.0908C22.2284 86.6913 22.5864 87.5571 22.8709 88.5926C23.0765 89.3411 23.4185 90.7892 23.4143 92.652C23.4129 93.2518 23.3749 94.0742 23.2194 95.0443C22.7013 98.6682 20.9942 102.431 17.7386 105.419C16.2127 106.82 14.6213 107.795 13.1418 108.479C13.5662 109.785 13.9044 111.414 13.8901 113.275C13.867 116.287 12.8851 120.459 9.47988 124.023C6.33355 127.316 2.73176 128.379 0.738106 128.738C0.488253 128.783 0.242025 128.82 0 128.852V183.168C0 187.968 0.576 191.904 1.728 194.976C2.88 197.856 4.512 200.16 6.624 201.888C8.736 203.616 11.424 204.768 14.688 205.344C17.952 205.92 21.696 206.208 25.92 206.208C30.144 206.208 34.368 205.92 38.592 205.344C43.008 204.768 46.272 204.192 48.384 203.616V158.976C48.384 148.608 48.288 138.048 48.096 127.296C48.096 116.544 47.712 105.984 46.944 95.616L48.672 95.328C51.36 102.24 53.856 108.384 56.16 113.76C58.464 118.944 61.056 124.512 63.936 130.464L92.448 188.64C96.48 196.704 101.664 201.792 108 203.904C114.336 206.016 121.056 207.072 128.16 207.072C135.264 207.072 141.312 206.304 146.304 204.768ZM197.773 7.48799C192.973 12.48 190.573 18.624 190.573 25.92C190.573 33.216 192.973 39.36 197.773 44.352C202.765 49.344 209.293 51.84 217.357 51.84C225.421 51.84 231.853 49.344 236.653 44.352C241.645 39.36 244.141 33.216 244.141 25.92C244.141 18.624 241.645 12.48 236.653 7.48799C231.853 2.496 225.421 0 217.357 0C209.293 0 202.765 2.496 197.773 7.48799ZM232.333 205.92C236.557 205.344 239.725 204.864 241.837 204.48V87.264C241.837 82.464 241.165 78.624 239.821 75.744C238.669 72.672 236.941 70.272 234.637 68.544C232.333 66.816 229.453 65.664 225.997 65.088C222.733 64.512 218.989 64.224 214.765 64.224C210.541 64.224 206.317 64.608 202.093 65.376C198.061 65.952 194.989 66.432 192.877 66.816V184.032C192.877 188.832 193.453 192.768 194.605 195.84C195.949 198.72 197.773 201.024 200.077 202.752C202.381 204.48 205.165 205.632 208.429 206.208C211.885 206.784 215.725 207.072 219.949 207.072C224.173 207.072 228.301 206.688 232.333 205.92ZM282.798 15.552C278.574 16.128 275.502 16.704 273.582 17.28V170.784C273.582 180.192 277.806 187.872 286.254 193.824C292.398 198.24 299.886 201.888 308.718 204.768C317.55 207.84 328.302 209.376 340.974 209.376C352.686 209.376 363.342 207.84 372.942 204.768C382.734 201.504 390.99 196.8 397.71 190.656C404.43 184.512 409.614 176.832 413.262 167.616C417.102 158.208 419.022 147.264 419.022 134.784C419.022 122.688 417.198 112.032 413.55 102.816C409.902 93.6 404.91 85.92 398.574 79.776C392.238 73.44 384.942 68.64 376.686 65.376C368.43 62.112 359.694 60.48 350.478 60.48C345.294 60.48 340.494 60.864 336.078 61.632C331.854 62.4 327.342 63.744 322.542 65.664V37.44C322.542 32.64 321.966 28.8 320.814 25.92C319.662 22.848 317.934 20.448 315.63 18.72C313.326 16.992 310.446 15.84 306.99 15.264C303.726 14.688 299.982 14.4 295.758 14.4C291.342 14.4 287.022 14.784 282.798 15.552ZM361.422 161.856C356.622 167.808 349.806 170.784 340.974 170.784C336.558 170.784 332.814 170.4 329.742 169.632C326.862 168.672 324.366 167.52 322.254 166.176V103.392C325.518 101.856 328.494 100.704 331.182 99.936C334.062 99.168 337.422 98.784 341.262 98.784C349.71 98.784 356.43 101.76 361.422 107.712C366.414 113.664 368.91 122.688 368.91 134.784C368.91 146.688 366.414 155.712 361.422 161.856ZM452.673 15.552C448.449 16.128 445.377 16.704 443.457 17.28V170.784C443.457 180.192 447.681 187.872 456.129 193.824C462.273 198.24 469.761 201.888 478.593 204.768C487.425 207.84 498.177 209.376 510.849 209.376C522.561 209.376 533.217 207.84 542.817 204.768C552.609 201.504 560.865 196.8 567.585 190.656C574.305 184.512 579.489 176.832 583.137 167.616C586.977 158.208 588.897 147.264 588.897 134.784C588.897 122.688 587.073 112.032 583.425 102.816C579.777 93.6 574.785 85.92 568.449 79.776C562.113 73.44 554.817 68.64 546.561 65.376C538.305 62.112 529.569 60.48 520.353 60.48C515.169 60.48 510.369 60.864 505.953 61.632C501.729 62.4 497.217 63.744 492.417 65.664V37.44C492.417 32.64 491.841 28.8 490.689 25.92C489.537 22.848 487.809 20.448 485.505 18.72C483.201 16.992 480.321 15.84 476.865 15.264C473.601 14.688 469.857 14.4 465.633 14.4C461.217 14.4 456.897 14.784 452.673 15.552ZM531.297 161.856C526.497 167.808 519.681 170.784 510.849 170.784C506.433 170.784 502.689 170.4 499.617 169.632C496.737 168.672 494.241 167.52 492.129 166.176V103.392C495.393 101.856 498.369 100.704 501.057 99.936C503.937 99.168 507.297 98.784 511.137 98.784C519.585 98.784 526.305 101.76 531.297 107.712C536.289 113.664 538.785 122.688 538.785 134.784C538.785 146.688 536.289 155.712 531.297 161.856ZM653.076 205.92C657.3 205.344 660.468 204.864 662.58 204.48V37.44C662.58 32.64 661.908 28.8 660.564 25.92C659.412 22.848 657.684 20.448 655.38 18.72C653.076 16.992 650.196 15.84 646.74 15.264C643.476 14.688 639.732 14.4 635.508 14.4C631.284 14.4 627.06 14.784 622.836 15.552C618.804 16.128 615.732 16.608 613.62 16.992V184.032C613.62 188.832 614.196 192.768 615.348 195.84C616.692 198.72 618.516 201.024 620.82 202.752C623.124 204.48 625.908 205.632 629.172 206.208C632.628 206.784 636.468 207.072 640.692 207.072C644.916 207.072 649.044 206.688 653.076 205.92ZM735.811 204.768C745.603 207.84 756.163 209.376 767.491 209.376C774.211 209.376 781.411 208.8 789.091 207.648C796.771 206.496 803.683 204.288 809.827 201.024C817.891 196.8 821.923 190.368 821.923 181.728C821.923 177.888 820.867 174.24 818.755 170.784C816.643 167.328 814.051 164.64 810.979 162.72C806.563 165.408 800.803 167.808 793.699 169.92C786.787 171.84 779.395 172.8 771.523 172.8C763.075 172.8 755.587 171.264 749.059 168.192C742.531 164.928 738.211 160.128 736.099 153.792L807.235 143.136C813.763 142.176 818.851 139.968 822.499 136.512C826.147 133.056 827.971 128.064 827.971 121.536C827.971 112.704 826.243 104.544 822.787 97.056C819.523 89.568 814.819 83.136 808.675 77.76C802.723 72.384 795.523 68.16 787.075 65.088C778.819 62.016 769.603 60.48 759.427 60.48C750.403 60.48 741.571 61.92 732.931 64.8C724.291 67.488 716.611 71.808 709.891 77.76C703.171 83.52 697.699 91.008 693.475 100.224C689.443 109.248 687.427 120.096 687.427 132.768C687.427 145.632 689.443 156.864 693.475 166.464C697.699 176.064 703.363 184.032 710.467 190.368C717.763 196.704 726.211 201.504 735.811 204.768ZM747.331 98.496C750.787 96.96 754.819 96.192 759.427 96.192C766.531 96.192 771.907 98.112 775.555 101.952C779.203 105.792 781.315 109.632 781.891 113.472L732.643 121.536C732.835 118.464 733.411 115.488 734.371 112.608C735.523 109.536 737.155 106.848 739.267 104.544C741.379 102.048 744.067 100.032 747.331 98.496ZM10.0745 44.6749C10.0749 44.6755 10.0567 44.6674 10.0184 44.649C10.0549 44.6651 10.074 44.6743 10.0745 44.6749Z" fill="#7FCA64"/>
</svg>
